<?xml version="1.0" encoding="UTF-8" standalone="no"?><!DOCTYPE svg PUBLIC "-//W3C//DTD SVG 1.1//EN" "http://www.w3.org/Graphics/SVG/1.1/DTD/svg11.dtd"><svg width="100%" height="100%" viewBox="0 0 418 402" version="1.1" xmlns="http://www.w3.org/2000/svg" xmlns:xlink="http://www.w3.org/1999/xlink" xml:space="preserve" xmlns:serif="http://www.serif.com/" style="fill-rule:evenodd;clip-rule:evenodd;stroke-linejoin:round;stroke-miterlimit:1.41421;"><rect id="Plan-de-travail1" serif:id="Plan de travail1" x="0" y="0" width="418" height="401.574" style="fill:none;"/><g id="Comp"><g id="Logo"><g id="BG"><path d="M381.483,43.251l-293.187,357.509l182.724,0.362l146.593,-178.755l-36.13,-179.116Z"/><path d="M99.09,215.741l-85.519,-0.155l149.317,-182.794l157.379,32.01l-45.573,56.35l-84.327,-17.152l-91.277,111.741Z"/></g><path d="M382.135,43.785l-293.188,357.509l-14.7,-36.868l244.464,-298.097l-156.967,-31.769l-148.239,181.286l-13.118,-36.666l146.593,-178.754l235.155,43.359Zm-374.118,136.718l7.817,21.849l143.265,-175.203l168.537,34.11l1.196,3.357l-246.852,301.008l8.998,22.567l278.705,-339.849l-220.014,-40.568l-141.652,172.729Z"/></g></g></svg>